<mxfile host="app.diagrams.net" modified="2023-07-21T15:06:27.260Z" agent="Mozilla/5.0 (Macintosh; Intel Mac OS X 10_15_7) AppleWebKit/537.36 (KHTML, like Gecko) Chrome/115.0.0.0 Safari/537.36" etag="widWZG3ny2ft8rZZzQQy" version="21.6.5" type="device">
  <diagram name="Página-1" id="Kjut9vYdgxjh66cWvtRX">
    <mxGraphModel dx="1146" dy="510" grid="1" gridSize="10" guides="1" tooltips="1" connect="1" arrows="1" fold="1" page="1" pageScale="1" pageWidth="1169" pageHeight="827" math="0" shadow="0">
      <root>
        <mxCell id="0" />
        <mxCell id="1" parent="0" />
        <mxCell id="Lr1TubB5HQzON_Au0uZD-2" value="TITULACIÓ" style="rounded=0;whiteSpace=wrap;html=1;" parent="1" vertex="1">
          <mxGeometry x="900" y="255" width="80" height="30" as="geometry" />
        </mxCell>
        <mxCell id="Lr1TubB5HQzON_Au0uZD-3" value="PROFESSOR" style="rounded=0;whiteSpace=wrap;html=1;" parent="1" vertex="1">
          <mxGeometry x="580" y="255" width="100" height="30" as="geometry" />
        </mxCell>
        <mxCell id="Lr1TubB5HQzON_Au0uZD-4" value="CURS" style="rounded=0;whiteSpace=wrap;html=1;" parent="1" vertex="1">
          <mxGeometry x="310" y="260" width="80" height="20" as="geometry" />
        </mxCell>
        <mxCell id="Lr1TubB5HQzON_Au0uZD-5" value="ALUMNE" style="rounded=0;whiteSpace=wrap;html=1;" parent="1" vertex="1">
          <mxGeometry x="118.97" y="260" width="80" height="20" as="geometry" />
        </mxCell>
        <mxCell id="Lr1TubB5HQzON_Au0uZD-6" value="TEMA" style="rounded=0;whiteSpace=wrap;html=1;" parent="1" vertex="1">
          <mxGeometry x="730" y="60" width="80" height="20" as="geometry" />
        </mxCell>
        <mxCell id="Lr1TubB5HQzON_Au0uZD-7" value="ASIGNATURA" style="rounded=0;whiteSpace=wrap;html=1;" parent="1" vertex="1">
          <mxGeometry x="340" y="55" width="100" height="30" as="geometry" />
        </mxCell>
        <mxCell id="Lr1TubB5HQzON_Au0uZD-8" value="TREBALL" style="rounded=0;whiteSpace=wrap;html=1;" parent="1" vertex="1">
          <mxGeometry x="58.97" y="60" width="80" height="20" as="geometry" />
        </mxCell>
        <mxCell id="Lr1TubB5HQzON_Au0uZD-9" value="RALC" style="ellipse;whiteSpace=wrap;html=1;aspect=fixed;" parent="1" vertex="1">
          <mxGeometry x="108.97" y="330" width="40" height="40" as="geometry" />
        </mxCell>
        <mxCell id="Lr1TubB5HQzON_Au0uZD-10" value="COGNOM" style="ellipse;whiteSpace=wrap;html=1;aspect=fixed;" parent="1" vertex="1">
          <mxGeometry x="158.97" y="320" width="60" height="60" as="geometry" />
        </mxCell>
        <mxCell id="Lr1TubB5HQzON_Au0uZD-11" value="NOM" style="ellipse;whiteSpace=wrap;html=1;aspect=fixed;" parent="1" vertex="1">
          <mxGeometry x="944" y="160" width="36" height="36" as="geometry" />
        </mxCell>
        <mxCell id="Lr1TubB5HQzON_Au0uZD-12" value="CODI" style="ellipse;whiteSpace=wrap;html=1;aspect=fixed;" parent="1" vertex="1">
          <mxGeometry x="360" y="300" width="40" height="40" as="geometry" />
        </mxCell>
        <mxCell id="Lr1TubB5HQzON_Au0uZD-13" value="ANY" style="ellipse;whiteSpace=wrap;html=1;aspect=fixed;" parent="1" vertex="1">
          <mxGeometry x="310" y="298" width="40" height="40" as="geometry" />
        </mxCell>
        <mxCell id="Lr1TubB5HQzON_Au0uZD-14" value="NOM" style="ellipse;whiteSpace=wrap;html=1;aspect=fixed;" parent="1" vertex="1">
          <mxGeometry x="585" y="330" width="40" height="40" as="geometry" />
        </mxCell>
        <mxCell id="Lr1TubB5HQzON_Au0uZD-15" value="CODI" style="ellipse;whiteSpace=wrap;html=1;aspect=fixed;" parent="1" vertex="1">
          <mxGeometry x="900" y="160" width="36" height="36" as="geometry" />
        </mxCell>
        <mxCell id="Lr1TubB5HQzON_Au0uZD-16" value="NOM" style="ellipse;whiteSpace=wrap;html=1;aspect=fixed;" parent="1" vertex="1">
          <mxGeometry x="400" width="40" height="40" as="geometry" />
        </mxCell>
        <mxCell id="Lr1TubB5HQzON_Au0uZD-17" value="ID" style="ellipse;whiteSpace=wrap;html=1;aspect=fixed;" parent="1" vertex="1">
          <mxGeometry x="350" width="40" height="40" as="geometry" />
        </mxCell>
        <mxCell id="Lr1TubB5HQzON_Au0uZD-18" value="NOM" style="ellipse;whiteSpace=wrap;html=1;aspect=fixed;" parent="1" vertex="1">
          <mxGeometry x="770" width="38.97" height="38" as="geometry" />
        </mxCell>
        <mxCell id="Lr1TubB5HQzON_Au0uZD-19" value="ID" style="ellipse;whiteSpace=wrap;html=1;aspect=fixed;" parent="1" vertex="1">
          <mxGeometry x="721.03" width="38.97" height="38" as="geometry" />
        </mxCell>
        <mxCell id="Lr1TubB5HQzON_Au0uZD-22" value="" style="endArrow=none;html=1;rounded=0;entryX=0.5;entryY=1;entryDx=0;entryDy=0;exitX=0.75;exitY=0;exitDx=0;exitDy=0;" parent="1" source="Lr1TubB5HQzON_Au0uZD-7" target="Lr1TubB5HQzON_Au0uZD-16" edge="1">
          <mxGeometry width="50" height="50" relative="1" as="geometry">
            <mxPoint x="331" y="119" as="sourcePoint" />
            <mxPoint x="330" y="70" as="targetPoint" />
          </mxGeometry>
        </mxCell>
        <mxCell id="Lr1TubB5HQzON_Au0uZD-23" value="" style="endArrow=none;html=1;rounded=0;entryX=0.5;entryY=1;entryDx=0;entryDy=0;exitX=0.25;exitY=0;exitDx=0;exitDy=0;" parent="1" source="Lr1TubB5HQzON_Au0uZD-7" target="Lr1TubB5HQzON_Au0uZD-17" edge="1">
          <mxGeometry width="50" height="50" relative="1" as="geometry">
            <mxPoint x="560" y="260" as="sourcePoint" />
            <mxPoint x="610" y="210" as="targetPoint" />
          </mxGeometry>
        </mxCell>
        <mxCell id="Lr1TubB5HQzON_Au0uZD-24" value="" style="endArrow=none;html=1;rounded=0;entryX=0.5;entryY=1;entryDx=0;entryDy=0;exitX=0.25;exitY=0;exitDx=0;exitDy=0;" parent="1" source="Lr1TubB5HQzON_Au0uZD-6" target="Lr1TubB5HQzON_Au0uZD-19" edge="1">
          <mxGeometry width="50" height="50" relative="1" as="geometry">
            <mxPoint x="560" y="260" as="sourcePoint" />
            <mxPoint x="610" y="210" as="targetPoint" />
          </mxGeometry>
        </mxCell>
        <mxCell id="Lr1TubB5HQzON_Au0uZD-25" value="" style="endArrow=none;html=1;rounded=0;entryX=0.5;entryY=1;entryDx=0;entryDy=0;exitX=0.667;exitY=-0.05;exitDx=0;exitDy=0;exitPerimeter=0;" parent="1" source="Lr1TubB5HQzON_Au0uZD-6" target="Lr1TubB5HQzON_Au0uZD-18" edge="1">
          <mxGeometry width="50" height="50" relative="1" as="geometry">
            <mxPoint x="560" y="260" as="sourcePoint" />
            <mxPoint x="610" y="210" as="targetPoint" />
          </mxGeometry>
        </mxCell>
        <mxCell id="Lr1TubB5HQzON_Au0uZD-26" value="DNI" style="ellipse;whiteSpace=wrap;html=1;aspect=fixed;" parent="1" vertex="1">
          <mxGeometry x="640" y="330" width="40" height="40" as="geometry" />
        </mxCell>
        <mxCell id="Lr1TubB5HQzON_Au0uZD-27" value="" style="endArrow=none;html=1;rounded=0;exitX=0.5;exitY=0;exitDx=0;exitDy=0;entryX=0.75;entryY=1;entryDx=0;entryDy=0;" parent="1" source="Lr1TubB5HQzON_Au0uZD-26" target="Lr1TubB5HQzON_Au0uZD-3" edge="1">
          <mxGeometry width="50" height="50" relative="1" as="geometry">
            <mxPoint x="560" y="260" as="sourcePoint" />
            <mxPoint x="610" y="210" as="targetPoint" />
          </mxGeometry>
        </mxCell>
        <mxCell id="Lr1TubB5HQzON_Au0uZD-28" value="" style="endArrow=none;html=1;rounded=0;exitX=0.5;exitY=0;exitDx=0;exitDy=0;entryX=0.25;entryY=1;entryDx=0;entryDy=0;" parent="1" source="Lr1TubB5HQzON_Au0uZD-14" target="Lr1TubB5HQzON_Au0uZD-3" edge="1">
          <mxGeometry width="50" height="50" relative="1" as="geometry">
            <mxPoint x="560" y="260" as="sourcePoint" />
            <mxPoint x="610" y="210" as="targetPoint" />
          </mxGeometry>
        </mxCell>
        <mxCell id="Lr1TubB5HQzON_Au0uZD-30" value="NOM" style="ellipse;whiteSpace=wrap;html=1;aspect=fixed;" parent="1" vertex="1">
          <mxGeometry x="58.97" y="332" width="36" height="36" as="geometry" />
        </mxCell>
        <mxCell id="Lr1TubB5HQzON_Au0uZD-32" value="ID" style="ellipse;whiteSpace=wrap;html=1;aspect=fixed;" parent="1" vertex="1">
          <mxGeometry x="31.029999999999973" width="38.97" height="38" as="geometry" />
        </mxCell>
        <mxCell id="Lr1TubB5HQzON_Au0uZD-33" value="NOM" style="ellipse;whiteSpace=wrap;html=1;aspect=fixed;" parent="1" vertex="1">
          <mxGeometry x="100" width="38.97" height="38" as="geometry" />
        </mxCell>
        <mxCell id="Lr1TubB5HQzON_Au0uZD-34" value="TUTORITZA" style="rhombus;whiteSpace=wrap;html=1;" parent="1" vertex="1">
          <mxGeometry x="440" y="250" width="80" height="40" as="geometry" />
        </mxCell>
        <mxCell id="Lr1TubB5HQzON_Au0uZD-35" value="TÉ" style="rhombus;whiteSpace=wrap;html=1;" parent="1" vertex="1">
          <mxGeometry x="730" y="250" width="50" height="40" as="geometry" />
        </mxCell>
        <mxCell id="Lr1TubB5HQzON_Au0uZD-36" value="IMPARTEIX" style="rhombus;whiteSpace=wrap;html=1;" parent="1" vertex="1">
          <mxGeometry x="565" y="140" width="80" height="60" as="geometry" />
        </mxCell>
        <mxCell id="Lr1TubB5HQzON_Au0uZD-37" value="CONTÉ" style="rhombus;whiteSpace=wrap;html=1;" parent="1" vertex="1">
          <mxGeometry x="365" y="155" width="50" height="40" as="geometry" />
        </mxCell>
        <mxCell id="Lr1TubB5HQzON_Au0uZD-38" value="MATRÍCULA" style="rhombus;whiteSpace=wrap;html=1;" parent="1" vertex="1">
          <mxGeometry x="198.97" y="145" width="80" height="50" as="geometry" />
        </mxCell>
        <mxCell id="Lr1TubB5HQzON_Au0uZD-39" value="FA" style="rhombus;whiteSpace=wrap;html=1;" parent="1" vertex="1">
          <mxGeometry x="100" y="130" width="40" height="30" as="geometry" />
        </mxCell>
        <mxCell id="Lr1TubB5HQzON_Au0uZD-40" value="CONTÉ" style="rhombus;whiteSpace=wrap;html=1;" parent="1" vertex="1">
          <mxGeometry x="580" y="50" width="60" height="40" as="geometry" />
        </mxCell>
        <mxCell id="Lr1TubB5HQzON_Au0uZD-41" value="CONTÉ" style="rhombus;whiteSpace=wrap;html=1;" parent="1" vertex="1">
          <mxGeometry x="198.97" y="50" width="60" height="40" as="geometry" />
        </mxCell>
        <mxCell id="Lr1TubB5HQzON_Au0uZD-43" value="" style="endArrow=none;html=1;rounded=0;entryX=0.25;entryY=0;entryDx=0;entryDy=0;exitX=0.5;exitY=1;exitDx=0;exitDy=0;" parent="1" source="Lr1TubB5HQzON_Au0uZD-15" target="Lr1TubB5HQzON_Au0uZD-2" edge="1">
          <mxGeometry width="50" height="50" relative="1" as="geometry">
            <mxPoint x="918" y="200" as="sourcePoint" />
            <mxPoint x="630" y="250" as="targetPoint" />
          </mxGeometry>
        </mxCell>
        <mxCell id="Lr1TubB5HQzON_Au0uZD-44" value="" style="endArrow=none;html=1;rounded=0;entryX=0.75;entryY=1;entryDx=0;entryDy=0;exitX=0.5;exitY=0;exitDx=0;exitDy=0;" parent="1" source="Lr1TubB5HQzON_Au0uZD-12" target="Lr1TubB5HQzON_Au0uZD-4" edge="1">
          <mxGeometry width="50" height="50" relative="1" as="geometry">
            <mxPoint x="580" y="300" as="sourcePoint" />
            <mxPoint x="630" y="250" as="targetPoint" />
          </mxGeometry>
        </mxCell>
        <mxCell id="Lr1TubB5HQzON_Au0uZD-45" value="" style="endArrow=none;html=1;rounded=0;entryX=0.25;entryY=1;entryDx=0;entryDy=0;exitX=0.5;exitY=0;exitDx=0;exitDy=0;" parent="1" source="Lr1TubB5HQzON_Au0uZD-13" target="Lr1TubB5HQzON_Au0uZD-4" edge="1">
          <mxGeometry width="50" height="50" relative="1" as="geometry">
            <mxPoint x="580" y="300" as="sourcePoint" />
            <mxPoint x="630" y="250" as="targetPoint" />
          </mxGeometry>
        </mxCell>
        <mxCell id="Lr1TubB5HQzON_Au0uZD-46" value="" style="endArrow=none;html=1;rounded=0;entryX=0.75;entryY=1;entryDx=0;entryDy=0;exitX=0.5;exitY=0;exitDx=0;exitDy=0;" parent="1" source="Lr1TubB5HQzON_Au0uZD-10" target="Lr1TubB5HQzON_Au0uZD-5" edge="1">
          <mxGeometry width="50" height="50" relative="1" as="geometry">
            <mxPoint x="580" y="300" as="sourcePoint" />
            <mxPoint x="630" y="250" as="targetPoint" />
          </mxGeometry>
        </mxCell>
        <mxCell id="Lr1TubB5HQzON_Au0uZD-47" value="" style="endArrow=none;html=1;rounded=0;entryX=0.5;entryY=1;entryDx=0;entryDy=0;exitX=0.5;exitY=0;exitDx=0;exitDy=0;" parent="1" source="Lr1TubB5HQzON_Au0uZD-9" target="Lr1TubB5HQzON_Au0uZD-5" edge="1">
          <mxGeometry width="50" height="50" relative="1" as="geometry">
            <mxPoint x="580" y="300" as="sourcePoint" />
            <mxPoint x="80" y="190" as="targetPoint" />
          </mxGeometry>
        </mxCell>
        <mxCell id="Lr1TubB5HQzON_Au0uZD-48" value="" style="endArrow=none;html=1;rounded=0;entryX=0.25;entryY=1;entryDx=0;entryDy=0;exitX=0.5;exitY=0;exitDx=0;exitDy=0;" parent="1" source="Lr1TubB5HQzON_Au0uZD-30" target="Lr1TubB5HQzON_Au0uZD-5" edge="1">
          <mxGeometry width="50" height="50" relative="1" as="geometry">
            <mxPoint x="580" y="300" as="sourcePoint" />
            <mxPoint x="630" y="250" as="targetPoint" />
          </mxGeometry>
        </mxCell>
        <mxCell id="Lr1TubB5HQzON_Au0uZD-49" value="" style="endArrow=none;html=1;rounded=0;entryX=0.5;entryY=1;entryDx=0;entryDy=0;exitX=0.5;exitY=0;exitDx=0;exitDy=0;" parent="1" source="Lr1TubB5HQzON_Au0uZD-8" target="Lr1TubB5HQzON_Au0uZD-33" edge="1">
          <mxGeometry width="50" height="50" relative="1" as="geometry">
            <mxPoint x="580" y="300" as="sourcePoint" />
            <mxPoint x="630" y="250" as="targetPoint" />
          </mxGeometry>
        </mxCell>
        <mxCell id="Lr1TubB5HQzON_Au0uZD-50" value="" style="endArrow=none;html=1;rounded=0;entryX=0.5;entryY=1;entryDx=0;entryDy=0;exitX=0.25;exitY=0;exitDx=0;exitDy=0;" parent="1" source="Lr1TubB5HQzON_Au0uZD-8" target="Lr1TubB5HQzON_Au0uZD-32" edge="1">
          <mxGeometry width="50" height="50" relative="1" as="geometry">
            <mxPoint x="580" y="300" as="sourcePoint" />
            <mxPoint x="630" y="250" as="targetPoint" />
          </mxGeometry>
        </mxCell>
        <mxCell id="Lr1TubB5HQzON_Au0uZD-54" value="(1,1)" style="text;html=1;strokeColor=none;fillColor=none;align=center;verticalAlign=middle;whiteSpace=wrap;rounded=0;" parent="1" vertex="1">
          <mxGeometry x="540" y="250" width="20" height="20" as="geometry" />
        </mxCell>
        <mxCell id="Lr1TubB5HQzON_Au0uZD-55" value="(0,1)" style="text;html=1;strokeColor=none;fillColor=none;align=center;verticalAlign=middle;whiteSpace=wrap;rounded=0;" parent="1" vertex="1">
          <mxGeometry x="400" y="250" width="20" height="20" as="geometry" />
        </mxCell>
        <mxCell id="Lr1TubB5HQzON_Au0uZD-75" value="NOTA" style="ellipse;whiteSpace=wrap;html=1;aspect=fixed;" parent="1" vertex="1">
          <mxGeometry x="10" y="94" width="36" height="36" as="geometry" />
        </mxCell>
        <mxCell id="Lr1TubB5HQzON_Au0uZD-76" value="DATA" style="ellipse;whiteSpace=wrap;html=1;aspect=fixed;" parent="1" vertex="1">
          <mxGeometry x="10" y="134" width="36" height="36" as="geometry" />
        </mxCell>
        <mxCell id="Lr1TubB5HQzON_Au0uZD-77" value="COMENTARI" style="ellipse;whiteSpace=wrap;html=1;aspect=fixed;" parent="1" vertex="1">
          <mxGeometry y="170" width="80" height="80" as="geometry" />
        </mxCell>
        <mxCell id="Lr1TubB5HQzON_Au0uZD-79" value="(1,n)" style="text;html=1;strokeColor=none;fillColor=none;align=center;verticalAlign=middle;whiteSpace=wrap;rounded=0;" parent="1" vertex="1">
          <mxGeometry x="700" y="250" width="20" height="20" as="geometry" />
        </mxCell>
        <mxCell id="Lr1TubB5HQzON_Au0uZD-80" value="(1,n)" style="text;html=1;strokeColor=none;fillColor=none;align=center;verticalAlign=middle;whiteSpace=wrap;rounded=0;" parent="1" vertex="1">
          <mxGeometry x="830" y="250" width="20" height="20" as="geometry" />
        </mxCell>
        <mxCell id="Lr1TubB5HQzON_Au0uZD-81" value="" style="endArrow=none;html=1;rounded=0;entryX=0;entryY=0.5;entryDx=0;entryDy=0;exitX=1;exitY=0.5;exitDx=0;exitDy=0;" parent="1" source="Lr1TubB5HQzON_Au0uZD-75" target="Lr1TubB5HQzON_Au0uZD-39" edge="1">
          <mxGeometry width="50" height="50" relative="1" as="geometry">
            <mxPoint x="50" y="162" as="sourcePoint" />
            <mxPoint x="100" y="112" as="targetPoint" />
          </mxGeometry>
        </mxCell>
        <mxCell id="Lr1TubB5HQzON_Au0uZD-83" value="" style="endArrow=none;html=1;rounded=0;entryX=0;entryY=0.5;entryDx=0;entryDy=0;exitX=1;exitY=0;exitDx=0;exitDy=0;" parent="1" source="Lr1TubB5HQzON_Au0uZD-77" target="Lr1TubB5HQzON_Au0uZD-39" edge="1">
          <mxGeometry width="50" height="50" relative="1" as="geometry">
            <mxPoint x="56" y="122" as="sourcePoint" />
            <mxPoint x="110" y="145" as="targetPoint" />
          </mxGeometry>
        </mxCell>
        <mxCell id="Lr1TubB5HQzON_Au0uZD-84" value="" style="endArrow=none;html=1;rounded=0;entryX=0;entryY=0.5;entryDx=0;entryDy=0;exitX=1;exitY=0.5;exitDx=0;exitDy=0;" parent="1" source="Lr1TubB5HQzON_Au0uZD-76" target="Lr1TubB5HQzON_Au0uZD-39" edge="1">
          <mxGeometry width="50" height="50" relative="1" as="geometry">
            <mxPoint x="66" y="132" as="sourcePoint" />
            <mxPoint x="120" y="155" as="targetPoint" />
            <Array as="points" />
          </mxGeometry>
        </mxCell>
        <mxCell id="Lr1TubB5HQzON_Au0uZD-85" value="(1,1)" style="text;html=1;strokeColor=none;fillColor=none;align=center;verticalAlign=middle;whiteSpace=wrap;rounded=0;" parent="1" vertex="1">
          <mxGeometry x="610" y="220" width="20" height="20" as="geometry" />
        </mxCell>
        <mxCell id="Lr1TubB5HQzON_Au0uZD-86" value="(1,n)" style="text;html=1;strokeColor=none;fillColor=none;align=center;verticalAlign=middle;whiteSpace=wrap;rounded=0;" parent="1" vertex="1">
          <mxGeometry x="500" y="110" width="20" height="20" as="geometry" />
        </mxCell>
        <mxCell id="Lr1TubB5HQzON_Au0uZD-87" value="(1,1)" style="text;html=1;strokeColor=none;fillColor=none;align=center;verticalAlign=middle;whiteSpace=wrap;rounded=0;" parent="1" vertex="1">
          <mxGeometry x="500" y="50" width="20" height="20" as="geometry" />
        </mxCell>
        <mxCell id="Lr1TubB5HQzON_Au0uZD-88" value="(1,n)" style="text;html=1;strokeColor=none;fillColor=none;align=center;verticalAlign=middle;whiteSpace=wrap;rounded=0;" parent="1" vertex="1">
          <mxGeometry x="670" y="50" width="20" height="20" as="geometry" />
        </mxCell>
        <mxCell id="Lr1TubB5HQzON_Au0uZD-89" value="(1,n)" style="text;html=1;strokeColor=none;fillColor=none;align=center;verticalAlign=middle;whiteSpace=wrap;rounded=0;" parent="1" vertex="1">
          <mxGeometry x="300" y="125" width="20" height="20" as="geometry" />
        </mxCell>
        <mxCell id="Lr1TubB5HQzON_Au0uZD-90" value="(1,n)" style="text;html=1;strokeColor=none;fillColor=none;align=center;verticalAlign=middle;whiteSpace=wrap;rounded=0;" parent="1" vertex="1">
          <mxGeometry x="220.00000000000003" y="220" width="20" height="20" as="geometry" />
        </mxCell>
        <mxCell id="Lr1TubB5HQzON_Au0uZD-91" value="(1,n)" style="text;html=1;strokeColor=none;fillColor=none;align=center;verticalAlign=middle;whiteSpace=wrap;rounded=0;" parent="1" vertex="1">
          <mxGeometry x="158.97000000000003" y="50" width="20" height="20" as="geometry" />
        </mxCell>
        <mxCell id="Lr1TubB5HQzON_Au0uZD-92" value="(1,1)" style="text;html=1;strokeColor=none;fillColor=none;align=center;verticalAlign=middle;whiteSpace=wrap;rounded=0;" parent="1" vertex="1">
          <mxGeometry x="290" y="50" width="20" height="20" as="geometry" />
        </mxCell>
        <mxCell id="Lr1TubB5HQzON_Au0uZD-93" value="(1,n)" style="text;html=1;strokeColor=none;fillColor=none;align=center;verticalAlign=middle;whiteSpace=wrap;rounded=0;" parent="1" vertex="1">
          <mxGeometry x="118.97000000000003" y="100" width="20" height="20" as="geometry" />
        </mxCell>
        <mxCell id="Lr1TubB5HQzON_Au0uZD-94" value="(1,n)" style="text;html=1;strokeColor=none;fillColor=none;align=center;verticalAlign=middle;whiteSpace=wrap;rounded=0;" parent="1" vertex="1">
          <mxGeometry x="110.00000000000003" y="200" width="20" height="20" as="geometry" />
        </mxCell>
        <mxCell id="Lr1TubB5HQzON_Au0uZD-95" value="(1,1)" style="text;html=1;strokeColor=none;fillColor=none;align=center;verticalAlign=middle;whiteSpace=wrap;rounded=0;" parent="1" vertex="1">
          <mxGeometry x="350" y="210" width="20" height="20" as="geometry" />
        </mxCell>
        <mxCell id="Lr1TubB5HQzON_Au0uZD-96" value="(1,n)" style="text;html=1;strokeColor=none;fillColor=none;align=center;verticalAlign=middle;whiteSpace=wrap;rounded=0;" parent="1" vertex="1">
          <mxGeometry x="395" y="120" width="20" height="20" as="geometry" />
        </mxCell>
        <mxCell id="Lr1TubB5HQzON_Au0uZD-97" value="ENTITATS&lt;br&gt;TEMA(&lt;u&gt;ID&lt;/u&gt;,NOM)&lt;br&gt;ASIGNATURA(&lt;u&gt;ID&lt;/u&gt;,NOM)&lt;br&gt;TREBALL(&lt;u&gt;ID&lt;/u&gt;,NOM)&lt;br&gt;ALUMNE(&lt;u&gt;RALC&lt;/u&gt;,NOM,COGNOM)&lt;br&gt;CURS(&lt;u&gt;CODI&lt;/u&gt;,ANY)&lt;br&gt;PROFESSOR(&lt;u&gt;DNI&lt;/u&gt;,NOM)&lt;br&gt;TITULACIO(&lt;u&gt;CODI&lt;/u&gt;,NOM)" style="text;html=1;strokeColor=none;fillColor=none;spacing=5;spacingTop=-20;whiteSpace=wrap;overflow=hidden;rounded=0;" parent="1" vertex="1">
          <mxGeometry x="880" y="15" width="190" height="115" as="geometry" />
        </mxCell>
        <mxCell id="Lr1TubB5HQzON_Au0uZD-98" value="" style="endArrow=none;html=1;rounded=0;entryX=0.5;entryY=1;entryDx=0;entryDy=0;exitX=0.75;exitY=0;exitDx=0;exitDy=0;" parent="1" source="Lr1TubB5HQzON_Au0uZD-2" target="Lr1TubB5HQzON_Au0uZD-11" edge="1">
          <mxGeometry width="50" height="50" relative="1" as="geometry">
            <mxPoint x="580" y="270" as="sourcePoint" />
            <mxPoint x="630" y="220" as="targetPoint" />
          </mxGeometry>
        </mxCell>
        <mxCell id="Lr1TubB5HQzON_Au0uZD-100" value="RELACIONS&lt;br&gt;Conte entre ASIGNATURE y TEMA : 1:n&lt;br&gt;Fa(DATA,NOTA,COMENTARI) entre ALUMNE y TREBALL : 1:n&lt;br&gt;&lt;div style=&quot;text-align: center;&quot;&gt;&lt;span style=&quot;background-color: initial;&quot;&gt;.&lt;/span&gt;&lt;/div&gt;&lt;div style=&quot;text-align: center;&quot;&gt;&lt;span style=&quot;background-color: initial;&quot;&gt;.&lt;/span&gt;&lt;/div&gt;&lt;div style=&quot;text-align: center;&quot;&gt;&lt;span style=&quot;background-color: initial;&quot;&gt;.&lt;/span&gt;&lt;/div&gt;" style="text;html=1;strokeColor=none;fillColor=none;spacing=5;spacingTop=-20;whiteSpace=wrap;overflow=hidden;rounded=0;" parent="1" vertex="1">
          <mxGeometry x="754" y="360" width="356" height="80" as="geometry" />
        </mxCell>
        <mxCell id="trqLgQb-KZuPzlkfUoQl-1" value="" style="endArrow=classic;html=1;rounded=0;exitX=0;exitY=0.5;exitDx=0;exitDy=0;entryX=1;entryY=0.5;entryDx=0;entryDy=0;" edge="1" parent="1" source="Lr1TubB5HQzON_Au0uZD-40" target="Lr1TubB5HQzON_Au0uZD-7">
          <mxGeometry width="50" height="50" relative="1" as="geometry">
            <mxPoint x="560" y="370" as="sourcePoint" />
            <mxPoint x="610" y="320" as="targetPoint" />
          </mxGeometry>
        </mxCell>
        <mxCell id="trqLgQb-KZuPzlkfUoQl-2" value="" style="endArrow=classic;html=1;rounded=0;exitX=1;exitY=0.5;exitDx=0;exitDy=0;entryX=0;entryY=0.5;entryDx=0;entryDy=0;" edge="1" parent="1" source="Lr1TubB5HQzON_Au0uZD-41" target="Lr1TubB5HQzON_Au0uZD-7">
          <mxGeometry width="50" height="50" relative="1" as="geometry">
            <mxPoint x="560" y="370" as="sourcePoint" />
            <mxPoint x="610" y="320" as="targetPoint" />
          </mxGeometry>
        </mxCell>
        <mxCell id="trqLgQb-KZuPzlkfUoQl-3" value="" style="endArrow=classic;html=1;rounded=0;exitX=0;exitY=0.5;exitDx=0;exitDy=0;entryX=1;entryY=0.5;entryDx=0;entryDy=0;" edge="1" parent="1" source="Lr1TubB5HQzON_Au0uZD-41" target="Lr1TubB5HQzON_Au0uZD-8">
          <mxGeometry width="50" height="50" relative="1" as="geometry">
            <mxPoint x="560" y="370" as="sourcePoint" />
            <mxPoint x="610" y="320" as="targetPoint" />
          </mxGeometry>
        </mxCell>
        <mxCell id="trqLgQb-KZuPzlkfUoQl-4" value="" style="endArrow=classic;html=1;rounded=0;entryX=0.5;entryY=1;entryDx=0;entryDy=0;" edge="1" parent="1" source="Lr1TubB5HQzON_Au0uZD-39" target="Lr1TubB5HQzON_Au0uZD-8">
          <mxGeometry width="50" height="50" relative="1" as="geometry">
            <mxPoint x="560" y="370" as="sourcePoint" />
            <mxPoint x="610" y="320" as="targetPoint" />
          </mxGeometry>
        </mxCell>
        <mxCell id="trqLgQb-KZuPzlkfUoQl-5" value="" style="endArrow=classic;html=1;rounded=0;exitX=0.5;exitY=1;exitDx=0;exitDy=0;entryX=0.5;entryY=0;entryDx=0;entryDy=0;" edge="1" parent="1" source="Lr1TubB5HQzON_Au0uZD-39" target="Lr1TubB5HQzON_Au0uZD-5">
          <mxGeometry width="50" height="50" relative="1" as="geometry">
            <mxPoint x="560" y="370" as="sourcePoint" />
            <mxPoint x="610" y="320" as="targetPoint" />
          </mxGeometry>
        </mxCell>
        <mxCell id="trqLgQb-KZuPzlkfUoQl-6" value="" style="endArrow=classic;html=1;rounded=0;exitX=0.5;exitY=1;exitDx=0;exitDy=0;entryX=0.75;entryY=0;entryDx=0;entryDy=0;" edge="1" parent="1" source="Lr1TubB5HQzON_Au0uZD-38" target="Lr1TubB5HQzON_Au0uZD-5">
          <mxGeometry width="50" height="50" relative="1" as="geometry">
            <mxPoint x="560" y="370" as="sourcePoint" />
            <mxPoint x="610" y="320" as="targetPoint" />
          </mxGeometry>
        </mxCell>
        <mxCell id="trqLgQb-KZuPzlkfUoQl-7" value="" style="endArrow=classic;html=1;rounded=0;exitX=0.5;exitY=0;exitDx=0;exitDy=0;entryX=0.25;entryY=1;entryDx=0;entryDy=0;" edge="1" parent="1" source="Lr1TubB5HQzON_Au0uZD-38" target="Lr1TubB5HQzON_Au0uZD-7">
          <mxGeometry width="50" height="50" relative="1" as="geometry">
            <mxPoint x="560" y="370" as="sourcePoint" />
            <mxPoint x="610" y="320" as="targetPoint" />
          </mxGeometry>
        </mxCell>
        <mxCell id="trqLgQb-KZuPzlkfUoQl-8" value="" style="endArrow=classic;html=1;rounded=0;exitX=0.5;exitY=0;exitDx=0;exitDy=0;entryX=0.5;entryY=1;entryDx=0;entryDy=0;" edge="1" parent="1" source="Lr1TubB5HQzON_Au0uZD-37" target="Lr1TubB5HQzON_Au0uZD-7">
          <mxGeometry width="50" height="50" relative="1" as="geometry">
            <mxPoint x="560" y="370" as="sourcePoint" />
            <mxPoint x="610" y="320" as="targetPoint" />
          </mxGeometry>
        </mxCell>
        <mxCell id="trqLgQb-KZuPzlkfUoQl-9" value="" style="endArrow=classic;html=1;rounded=0;exitX=0.5;exitY=1;exitDx=0;exitDy=0;entryX=0.75;entryY=0;entryDx=0;entryDy=0;" edge="1" parent="1" source="Lr1TubB5HQzON_Au0uZD-37" target="Lr1TubB5HQzON_Au0uZD-4">
          <mxGeometry width="50" height="50" relative="1" as="geometry">
            <mxPoint x="560" y="370" as="sourcePoint" />
            <mxPoint x="610" y="320" as="targetPoint" />
          </mxGeometry>
        </mxCell>
        <mxCell id="trqLgQb-KZuPzlkfUoQl-10" value="" style="endArrow=classic;html=1;rounded=0;exitX=0;exitY=0.5;exitDx=0;exitDy=0;entryX=0.75;entryY=1;entryDx=0;entryDy=0;" edge="1" parent="1" source="Lr1TubB5HQzON_Au0uZD-36" target="Lr1TubB5HQzON_Au0uZD-7">
          <mxGeometry width="50" height="50" relative="1" as="geometry">
            <mxPoint x="560" y="370" as="sourcePoint" />
            <mxPoint x="610" y="320" as="targetPoint" />
          </mxGeometry>
        </mxCell>
        <mxCell id="trqLgQb-KZuPzlkfUoQl-14" value="" style="endArrow=classic;html=1;rounded=0;exitX=1;exitY=0.5;exitDx=0;exitDy=0;entryX=0;entryY=0.5;entryDx=0;entryDy=0;" edge="1" parent="1" source="Lr1TubB5HQzON_Au0uZD-40" target="Lr1TubB5HQzON_Au0uZD-6">
          <mxGeometry width="50" height="50" relative="1" as="geometry">
            <mxPoint x="500" y="410" as="sourcePoint" />
            <mxPoint x="660" y="150" as="targetPoint" />
          </mxGeometry>
        </mxCell>
        <mxCell id="trqLgQb-KZuPzlkfUoQl-17" value="" style="endArrow=classic;html=1;rounded=0;exitX=0.5;exitY=1;exitDx=0;exitDy=0;entryX=0.25;entryY=0;entryDx=0;entryDy=0;" edge="1" parent="1" source="Lr1TubB5HQzON_Au0uZD-36" target="Lr1TubB5HQzON_Au0uZD-3">
          <mxGeometry width="50" height="50" relative="1" as="geometry">
            <mxPoint x="560" y="370" as="sourcePoint" />
            <mxPoint x="610" y="320" as="targetPoint" />
          </mxGeometry>
        </mxCell>
        <mxCell id="trqLgQb-KZuPzlkfUoQl-18" value="" style="endArrow=classic;html=1;rounded=0;exitX=0;exitY=0.5;exitDx=0;exitDy=0;entryX=1;entryY=0.5;entryDx=0;entryDy=0;" edge="1" parent="1" source="Lr1TubB5HQzON_Au0uZD-34" target="Lr1TubB5HQzON_Au0uZD-4">
          <mxGeometry width="50" height="50" relative="1" as="geometry">
            <mxPoint x="560" y="370" as="sourcePoint" />
            <mxPoint x="610" y="320" as="targetPoint" />
          </mxGeometry>
        </mxCell>
        <mxCell id="trqLgQb-KZuPzlkfUoQl-19" value="" style="endArrow=classic;html=1;rounded=0;exitX=1;exitY=0.5;exitDx=0;exitDy=0;entryX=0;entryY=0.5;entryDx=0;entryDy=0;" edge="1" parent="1" source="Lr1TubB5HQzON_Au0uZD-34" target="Lr1TubB5HQzON_Au0uZD-3">
          <mxGeometry width="50" height="50" relative="1" as="geometry">
            <mxPoint x="560" y="370" as="sourcePoint" />
            <mxPoint x="530" y="320" as="targetPoint" />
          </mxGeometry>
        </mxCell>
        <mxCell id="trqLgQb-KZuPzlkfUoQl-20" value="" style="endArrow=classic;html=1;rounded=0;exitX=0;exitY=0.5;exitDx=0;exitDy=0;entryX=1;entryY=0.5;entryDx=0;entryDy=0;" edge="1" parent="1" source="Lr1TubB5HQzON_Au0uZD-35" target="Lr1TubB5HQzON_Au0uZD-3">
          <mxGeometry width="50" height="50" relative="1" as="geometry">
            <mxPoint x="700" y="368" as="sourcePoint" />
            <mxPoint x="750" y="318" as="targetPoint" />
          </mxGeometry>
        </mxCell>
        <mxCell id="trqLgQb-KZuPzlkfUoQl-21" value="" style="endArrow=classic;html=1;rounded=0;exitX=1;exitY=0.5;exitDx=0;exitDy=0;entryX=0;entryY=0.5;entryDx=0;entryDy=0;" edge="1" parent="1" source="Lr1TubB5HQzON_Au0uZD-35" target="Lr1TubB5HQzON_Au0uZD-2">
          <mxGeometry width="50" height="50" relative="1" as="geometry">
            <mxPoint x="800" y="343" as="sourcePoint" />
            <mxPoint x="850" y="293" as="targetPoint" />
          </mxGeometry>
        </mxCell>
      </root>
    </mxGraphModel>
  </diagram>
</mxfile>
